<svg xmlns="http://www.w3.org/2000/svg" width="284.4" height="341.4"><path fill="#f3f3f1" d="M245.3 330.7H39.1c-15.7 0-28.4-12.7-28.4-28.4V39.1c0-15.7 12.7-28.4 28.4-28.4h206.2c15.7 0 28.4 12.7 28.4 28.4v263.1c.1 15.8-12.7 28.5-28.4 28.5z"/><path fill="#fcb42d" d="M216.9 103.1H67.5c-7.9 0-14.2-6.4-14.2-14.2V67.6c0-7.9 6.4-14.2 14.2-14.2h149.3c7.9 0 14.2 6.4 14.2 14.2v21.3c.1 7.9-6.3 14.2-14.1 14.2z"/><path fill="#d5dbe1" d="M42.6 302.3V39.1c0-15.7 12.7-28.4 28.4-28.4H39c-15.7 0-28.4 12.7-28.4 28.4v263.1c0 15.7 12.7 28.4 28.4 28.4h32c-15.6.1-28.4-12.6-28.4-28.3z"/><path d="M245.3 341.4H39.1C17.5 341.4 0 323.9 0 302.3V39.1C0 17.5 17.5 0 39.1 0h206.2c21.6 0 39.1 17.5 39.1 39.1v263.1c0 21.6-17.5 39.2-39.1 39.2zM39.1 21.4c-9.8 0-17.8 8-17.8 17.8v263.1c0 9.8 8 17.8 17.8 17.8h206.2c9.8 0 17.8-8 17.8-17.8V39.1c0-9.8-8-17.8-17.8-17.8l-206.2.1zm177.8 92.4H67.5c-13.7 0-24.9-11.2-24.9-24.9V67.6c0-13.7 11.2-24.9 24.9-24.9h149.3c13.7 0 24.9 11.2 24.9 24.9v21.3c.1 13.7-11.1 24.9-24.8 24.9zM67.5 64c-2 0-3.6 1.6-3.6 3.6v21.3c0 2 1.6 3.6 3.6 3.6h149.3c2 0 3.6-1.6 3.6-3.6V67.6c0-2-1.6-3.6-3.6-3.6H67.5zm7.1 78.3h21.3v56.9H74.6v-56.9z"/><path d="M56.9 160h56.9v21.3H56.9V160zm113.7 3.6h56.9v21.3h-56.9v-21.3zm0 64h56.9v21.3h-56.9v-21.3zm0 35.5h56.9v21.3h-56.9v-21.3zM52.4 273.8l50.6-50.6 15.1 15.1-50.6 50.6-15.1-15.1z"/><path d="m52.4 238.2 15.1-15.1 50.6 50.6-15.1 15.1-50.6-50.6z"/></svg>