<svg xmlns="http://www.w3.org/2000/svg" xmlns:xlink="http://www.w3.org/1999/xlink" width="446.9" height="495.4"><path fill="#efefef" d="M360.3 51C261.9 51 194.4 0 147 0S0 27.2 0 245.3s133.9 250.1 186.1 250.1C430.2 495.4 534.5 51 360.3 51z"/><g fill="#f3f3f1"><circle cx="323" cy="162.4" r="17.8"/><circle cx="223.4" cy="375.7" r="17.8"/><circle cx="123.9" cy="119.7" r="17.8"/></g><g fill="#d5dbe1"><use xlink:href="#a"/><use xlink:href="#a" x="-99.5" y="213.3"/><use xlink:href="#a" x="-199.1" y="-42.7"/></g><path d="M323 190.8c-15.7 0-28.4-12.8-28.4-28.4S307.4 134 323 134c15.7 0 28.4 12.8 28.4 28.4s-12.7 28.4-28.4 28.4zm0-35.6a7.13 7.13 0 0 0-7.1 7.1 7.13 7.13 0 0 0 7.1 7.1 7.13 7.13 0 0 0 7.1-7.1 7.13 7.13 0 0 0-7.1-7.1zm-99.6 248.9c-15.7 0-28.4-12.8-28.4-28.4 0-15.7 12.8-28.4 28.4-28.4s28.4 12.8 28.4 28.4c.1 15.7-12.7 28.4-28.4 28.4zm0-35.5a7.13 7.13 0 0 0-7.1 7.1 7.13 7.13 0 0 0 7.1 7.1 7.13 7.13 0 0 0 7.1-7.1 7.13 7.13 0 0 0-7.1-7.1zm135.1-106.7h35.6v21.3h-35.6v-21.3zm-12.9 21.3h-38.5v-21.3h38.5v21.3zm-51.5 0h-38.5v-21.3h38.5v21.3z"/><path d="M242.7 283.2h-38.5v-21.3h38.5v21.3zm-51.5 0h-38.5v-21.3h38.5v21.3zm-51.4 0h-38.5v-21.3h38.5v21.3zm-87-21.3h35.6v21.3H52.8v-21.3zm71.1-113.8c-15.7 0-28.4-12.8-28.4-28.4s12.8-28.4 28.4-28.4 28.4 12.8 28.4 28.4-12.7 28.4-28.4 28.4zm0-35.5a7.13 7.13 0 0 0-7.1 7.1 7.13 7.13 0 0 0 7.1 7.1 7.13 7.13 0 0 0 7.1-7.1 7.13 7.13 0 0 0-7.1-7.1zm256 156.4h-21.3v-60.4c0-9.3-3.8-18.5-10.5-25.2-3.3-3.3-7.3-6-11.8-7.9l8.2-19.7c7.1 2.9 13.4 7.2 18.8 12.6 10.6 10.8 16.6 25.4 16.6 40.2V269z"/><path d="m244.2 382.8-6.8-20.2c6-2 11.6-5.5 16.2-10.1 8.1-8.1 12.5-18.8 12.5-30.1V208.6c0-23.2 13.9-43.9 35.5-52.8l8.1 19.7c-13.5 5.6-22.3 18.6-22.3 33.1v113.8c0 17.1-6.7 33.1-18.8 45.2-6.9 6.9-15.3 12.2-24.4 15.2zm-41.5 0c-25.8-8.8-43.2-33.1-43.2-60.4V165.9c0-9.3-3.8-18.5-10.5-25.2-3.3-3.3-7.3-6-11.8-7.9l8.2-19.7c7.1 2.9 13.4 7.2 18.8 12.6 10.6 10.8 16.6 25.4 16.6 40.2v156.4c0 18.2 11.5 34.4 28.7 40.2l-6.8 20.3zM88.3 269H67V165.9c0-23.2 13.9-43.9 35.5-52.8l8.1 19.7c-13.5 5.6-22.3 18.6-22.3 33.1V269z"/><defs><path id="a" d="M337.2 162.4c0-2.7.7-5.2 1.8-7.5-2.8-6-8.9-10.3-16-10.3-9.8 0-17.8 8-17.8 17.8s8 17.8 17.8 17.8c7.1 0 13.2-4.3 16-10.3-1.1-2.3-1.8-4.8-1.8-7.5z"/></defs></svg>