<svg xmlns="http://www.w3.org/2000/svg" xmlns:xlink="http://www.w3.org/1999/xlink" width="495.4" height="446.9"><path fill="#efefef" d="M51 360.3C51 261.9 0 194.4 0 147S27.2 0 245.3 0s250.1 133.9 250.1 186.1C495.4 430.2 51 534.5 51 360.3z"/><path fill="#f3f3f1" d="M335.8 118.7c-15.4-32.7-49.1-55.3-88.1-55.3-49.1 0-89.6 35.7-96.3 82.5h-1.1c-34.6 0-62.6 27.6-62.6 61.9s28 61.9 62.6 61.9h180.9c42.3 0 76.5-33.8 76.5-75.6 0-40.3-31.7-73.2-71.9-75.4zm-49 67.5c0 10.8-8.7 19.5-19.5 19.5h-51.6v-78.2h44.5c10.8 0 19.5 8.7 19.5 19.5v.1c0 10.8-8.7 19.5-19.5 19.5h7.1c10.8 0 19.5 8.7 19.5 19.5v.1z"/><g fill="#fcb42d"><circle cx="105.5" cy="351.4" r="17.8"/><circle cx="389.9" cy="351.4" r="17.8"/><circle cx="247.7" cy="351.4" r="17.8"/><path d="M260.2 166.5h-44.5v-39.1h44.5c10.8 0 19.5 8.7 19.5 19.5v.1c0 10.8-8.7 19.5-19.5 19.5zm7.1 39.2h-51.6v-39.1h51.6c10.8 0 19.5 8.7 19.5 19.5v.1c0 10.7-8.7 19.5-19.5 19.5z"/></g><path fill="#d5dbe1" d="M119.7 207.8c0-34.2 28-61.9 62.6-61.9h1.1c5.9-41.5 38.5-74.3 80.2-81.1-5.2-.9-10.5-1.4-15.9-1.4-49.1 0-89.6 35.7-96.3 82.5h-1.1c-34.6 0-62.6 27.6-62.6 61.9s28 61.9 62.6 61.9h32c-34.6 0-62.6-27.7-62.6-61.9z"/><use xlink:href="#a"/><path d="M389.9 379.9c-15.7 0-28.4-12.8-28.4-28.4 0-15.7 12.8-28.4 28.4-28.4 15.7 0 28.4 12.8 28.4 28.4.1 15.6-12.7 28.4-28.4 28.4zm0-35.6a7.13 7.13 0 0 0-7.1 7.1 7.13 7.13 0 0 0 7.1 7.1 7.13 7.13 0 0 0 7.1-7.1 7.13 7.13 0 0 0-7.1-7.1z"/><use xlink:href="#a" x="142.2"/><path d="M169.5 362.1h-42.7v-21.3h32v-71.1h21.3v81.8c0 5.8-4.7 10.6-10.6 10.6zm199.1 0h-49.8c-5.9 0-10.7-4.8-10.7-10.7v-81.8h21.3v71.1h39.1v21.4zM237 269.7h21.3v60.4H237v-60.4z"/><path d="M331.2 280.3H150.3c-40.4 0-73.3-32.5-73.3-72.5 0-37.4 28.7-68.3 65.5-72.1 11.1-47.8 54.8-82.9 105.2-82.9 39.7 0 76.2 21.7 94.9 55.9 43 5.4 75.8 41.8 75.8 85.4 0 47.5-39.2 86.2-87.2 86.2zM247.7 74.1c-42.9 0-79.7 31.5-85.7 73.3-.8 5.3-5.2 9.2-10.6 9.2-29.8 0-53 23-53 51.2s23.3 51.2 51.9 51.2h180.9c36.3 0 65.9-29.1 65.9-65 0-34.4-27.2-62.8-61.9-64.7-3.9-.2-7.4-2.6-9.1-6.1-14.1-29.8-44.9-49.1-78.4-49.1zm12.5 103.1h-44.5c-5.9 0-10.7-4.8-10.7-10.7v-39.1c0-5.9 4.8-10.7 10.7-10.7h44.5c16.6 0 30.2 13.5 30.2 30.2 0 16.8-13.6 30.3-30.2 30.3zm-33.8-21.3h33.8c4.9 0 8.8-4 8.8-8.8 0-5-4-9-8.8-9h-33.8v17.8z"/><path d="M267.3 216.3h-51.6c-5.9 0-10.7-4.8-10.7-10.7v-39.1c0-5.9 4.8-10.7 10.7-10.7h51.6c16.6 0 30.2 13.5 30.2 30.2 0 16.8-13.6 30.3-30.2 30.3zM226.4 195h41c4.9 0 8.8-4 8.8-8.8 0-5-4-9-8.8-9h-41V195zm-7.2-88.9h21.3v21.3h-21.3v-21.3z"/><path d="M247.7 106.1H269v21.3h-21.3v-21.3zm0 99.6H269V227h-21.3v-21.3zm-28.5 0h21.3V227h-21.3v-21.3z"/><defs><path id="a" d="M105.5 379.9c-15.7 0-28.4-12.8-28.4-28.4 0-15.7 12.8-28.4 28.4-28.4s28.4 12.8 28.4 28.4-12.7 28.4-28.4 28.4zm0-35.6a7.13 7.13 0 0 0-7.1 7.1 7.13 7.13 0 0 0 7.1 7.1 7.13 7.13 0 0 0 7.1-7.1 7.13 7.13 0 0 0-7.1-7.1z"/></defs></svg>