<svg xmlns="http://www.w3.org/2000/svg" width="164" height="182.1"><path fill="#efefef" d="M17.7 146.4C17.7 106.5.8 79 .8 59.8S9.8.1 82 .1s82.8 54.4 82.8 75.6c0 99.1-147.1 141.4-147.1 70.7z"/><path fill="#f3f3f1" d="M102.4 62.6H58a7.13 7.13 0 0 0-7.1 7.1v44.4a7.13 7.13 0 0 0 7.1 7.1h44.4a7.13 7.13 0 0 0 7.1-7.1V69.7a7.13 7.13 0 0 0-7.1-7.1zM90 96.9a4.91 4.91 0 0 1-4.9 4.9H72.2V82.2h11.1a4.91 4.91 0 0 1 4.9 4.9 4.91 4.91 0 0 1-4.9 4.9h1.8c2.7 0 4.9 2.1 4.9 4.9z"/><g fill="#fbb33b"><path d="M83.3 92H72.2v-9.8h11.1a4.91 4.91 0 0 1 4.9 4.9 4.91 4.91 0 0 1-4.9 4.9z"/><path d="M85.1 101.7H72.2V92h12.9a4.91 4.91 0 0 1 4.9 4.9c0 2.7-2.2 4.8-4.9 4.8z"/></g><path fill="#d5dbe1" d="M60.9 114.2V69.7a7.13 7.13 0 0 1 7.1-7.1h-8a7.13 7.13 0 0 0-7.1 7.1v44.4a7.13 7.13 0 0 0 7.1 7.1h8c-4 .1-7.1-3.1-7.1-7z"/><path d="M104.3 123H59.8a9.82 9.82 0 0 1-9.8-9.8V68.8a9.82 9.82 0 0 1 9.8-9.8h44.4a9.82 9.82 0 0 1 9.8 9.8v44.4c0 5.4-4.3 9.8-9.7 9.8zM59.8 64.4c-2.4 0-4.4 2-4.4 4.4v44.4c0 2.4 2 4.4 4.4 4.4h44.4c2.4 0 4.4-2 4.4-4.4V68.8c0-2.4-2-4.4-4.4-4.4H59.8z"/><path d="M59.8 51h5.3v10.7h-5.3V51zm19.6 0h5.3v10.7h-5.3V51zm19.5 0h5.3v10.7h-5.3V51zm-39.1 69.4h5.3V131h-5.3v-10.6zm19.6 0h5.3V131h-5.3v-10.6zm19.5 0h5.3V131h-5.3v-10.6zM42 107.9h10.7v5.3H42v-5.3zm0-19.5h10.7v5.3H42v-5.3zm0-19.6h10.7v5.3H42v-5.3zm69.4 39.1H122v5.3h-10.7v-5.3zm0-19.5H122v5.3h-10.7v-5.3zm0-19.6H122v5.3h-10.7v-5.3zM85.2 93.7H74a2.69 2.69 0 0 1-2.7-2.7v-9.8a2.69 2.69 0 0 1 2.7-2.7h11.1c4.2 0 7.5 3.4 7.5 7.5.1 4.3-3.3 7.7-7.4 7.7zm-8.5-5.3h8.5a2.22 2.22 0 0 0 2.2-2.2c0-1.3-1-2.2-2.2-2.2h-8.5v4.4z"/><path d="M86.9 103.5H74a2.69 2.69 0 0 1-2.7-2.7V91a2.69 2.69 0 0 1 2.7-2.7h12.9c4.2 0 7.5 3.4 7.5 7.5.1 4.3-3.3 7.7-7.5 7.7zm-10.2-5.4h10.2a2.22 2.22 0 0 0 2.2-2.2c0-1.3-1-2.2-2.2-2.2H76.7v4.4zm-1.8-22.2h5.3v5.3h-5.3v-5.3z"/><path d="M82 75.9h5.3v5.3H82v-5.3zm0 24.9h5.3v5.3H82v-5.3zm-7.1 0h5.3v5.3h-5.3v-5.3z"/></svg>