<svg xmlns="http://www.w3.org/2000/svg" width="256" height="256"><path fill="#f3f3f1" d="M152 216H26.7c-11.8 0-21.3-9.5-21.3-21.3V29.3C5.3 17.5 14.9 8 26.7 8H152c11.8 0 21.3 9.5 21.3 21.3v165.3c0 11.9-9.5 21.4-21.3 21.4z"/><path fill="#fcb42d" d="M192 248s56-23.8 56-71.4v-42.9l-56-19.1-56 19.1v42.9c0 47.6 56 71.4 56 71.4z"/><path fill="#d5dbe1" d="M29.3 194.7V29.3C29.3 17.5 38.9 8 50.7 8h-24C14.9 8 5.3 17.5 5.3 29.3v165.3c0 11.8 9.5 21.3 21.3 21.3h24c-11.7.1-21.3-9.4-21.3-21.2z"/><path d="M192 256a8.15 8.15 0 0 1-3.1-.6c-2.5-1.1-60.9-26.5-60.9-78.8v-42.9c0-3.4 2.2-6.5 5.4-7.6l56-19.1c1.7-.6 3.5-.6 5.1 0l56 19.1c3.3 1.1 5.4 4.1 5.4 7.6v42.9c0 52.3-58.4 77.7-60.9 78.8-.9.4-1.9.6-3 .6zm-48-116.6v37.1c0 35.6 36.9 56.9 48 62.6 11.1-5.6 48-27 48-62.6v-37.1l-48-16.3-48 16.3zm45.3 68.6c-2.1 0-4.2-.8-5.7-2.3l-21.3-21.3 11.3-11.3 14.8 14.8 26.5-35.3 12.8 9.6-32 42.7c-1.4 1.9-3.5 3-5.8 3.2-.2-.1-.4-.1-.6-.1zM113 224H29.3C13.2 224 0 210.8 0 194.7V29.3C0 13.2 13.2 0 29.3 0H152c16.2 0 29.3 13.2 29.3 29.3v57.9h-16V29.3c0-7.3-6-13.3-13.3-13.3H29.3C22 16 16 22 16 29.3v165.3c0 7.3 6 13.3 13.3 13.3H113V224zM40 85.3h101.3v16H40v-16zm0 42.7h58.7v16H40v-16zm0-85.3h48v16H40v-16z"/></svg>