<svg xmlns="http://www.w3.org/2000/svg" width="507.6" height="456.5"><path fill="#efefef" d="M494.6 265c-52.5-83.2-45.5-167.5-70.8-207.6-25.4-40-101.6-109.6-286 6.8S-2.1 310.9 25.7 355c130.4 206.5 561.9 57.4 468.9-90z"/><path fill="#fcb42d" d="m317.9 97.1-44.6-25.9c-6.5-3.8-14.6-4.1-21.4-.8l-60.6 29.2c-9.7 4.7-14.4 15.5-11.1 25.4 16 47.2 72.3 179.1 134.7 249.7 0 0-40.3-153.3 11.1-250 5.3-9.8 1.9-21.9-8.1-27.6z"/><path fill="#f3f3f1" d="M201 181.8c14.6 83.8-.1 145.1-7.7 174.1-2.8 10.8 3.4 21.8 14.4 25.3l20.1 5.8c3.6 1.2 7.5 1.4 11.3.7l75.7-13L201 181.8z"/><path fill="#d5dbe1" d="M236.2 381.3c-11-3.5-17.2-14.5-14.4-25.3 5.7-21.8 15.4-61.7 13.7-115.7L201 181.9c14.6 83.8-.1 145.1-7.7 174.1-2.8 10.8 3.4 21.8 14.4 25.3l20.1 5.8c3.6 1.2 7.5 1.4 11.3.7l12.2-2.1-15.1-4.4z"/><path d="M314.9 385.5c-3 0-5.9-1.3-8-3.6-62.4-70.6-119.1-201.2-136.8-253.4-5-14.9 2-31.5 16.5-38.4l60.7-29.2c10-4.8 21.7-4.4 31.3 1.2l44.6 25.8c14.8 8.6 20.1 27 12.2 42-5.9 11-10.8 23.5-14.6 37l-20.5-5.8c4.2-15 9.7-28.9 16.3-41.2 2.6-4.9.9-10.6-4-13.5l-44.7-25.8c-3.4-2-7.8-2.1-11.4-.4l-60.6 29.2c-4.9 2.3-7.2 7.6-5.6 12.4 14 41.3 56.5 140.5 105.3 210.9-5.2-33.7-9.6-82.1-3.6-130.2l21.2 2.7c-10.3 81.2 11.7 166.2 11.9 167 1.3 4.8-.9 9.8-5.3 12.1-1.5.8-3.2 1.2-4.9 1.2z"/><path d="M234.9 398.9c-3.4 0-6.9-.5-10.3-1.6l-19.9-5.8c-16.5-5.3-26-22-21.7-38.3 6.1-23.3 22.2-85.2 7.5-169.6l21-3.7c15.5 88.9-1.5 154.1-7.9 178.6-1.4 5.3 1.7 10.7 7.3 12.5l19.9 5.7c2.2.7 4.3.8 6.3.4l76-13 3.6 21-75.7 13c-2 .6-4.1.8-6.1.8z"/><path d="m243.8 390.5-20.8-4.7c18-79.4-31.3-198.6-31.8-199.8l19.7-8.2c2.1 5.1 52.4 126.7 32.9 212.7zm61.8-10.4c-69.4-121-54.1-302-53.4-309.6l21.2 1.9c-.2 1.8-15.3 182 50.7 297.1l-18.5 10.6z"/></svg>