<svg xmlns="http://www.w3.org/2000/svg" width="495.4" height="446.9"><path fill="#efefef" d="M51 360.3C51 261.9 0 194.4 0 147S27.2 0 245.3 0s250.1 133.9 250.1 186.1C495.4 430.2 51 534.5 51 360.3z"/><g fill="#f3f3f1"><path d="M336.6 383.4H158.8v-35.6c0-7.9 6.4-14.2 14.2-14.2h149.3c7.9 0 14.2 6.4 14.2 14.2l.1 35.6z"/><path d="m286.4 285.8 11.1 47.8h-99.6l11.1-47.8h77.4z"/></g><path fill="#fcb42d" d="M247.7 298.1s103.1-25.5 103.1-115.5V99.2L247.7 63.4 144.6 99.1v83.4c0 90.1 103.1 115.6 103.1 115.6z"/><g fill="#d5dbe1"><path d="m209 285.8-11.1 47.8h28.4l11.1-47.8H209zM201.5 333.6h-28.4c-7.9 0-14.2 6.4-14.2 14.2v35.6h28.4v-35.6c0-7.8 6.3-14.2 14.2-14.2z"/></g><path d="M336.6 394.1H158.8c-5.9 0-10.7-4.8-10.7-10.7v-35.6c0-13.7 11.2-24.9 24.9-24.9h149.3c13.7 0 24.9 11.2 24.9 24.9v35.6c.1 5.9-4.7 10.7-10.6 10.7zm-167.1-21.4h156.4v-24.9c0-2-1.6-3.6-3.6-3.6H173c-2 0-3.6 1.6-3.6 3.6v24.9h.1z"/><path d="M297.5 344.3h-99.6c-3.3 0-6.3-1.5-8.3-4s-2.8-5.9-2-9l11.1-47.8 20.8 4.8-8 34.7h72.7l-8-34.7 20.8-4.8 11.1 47.8c.7 3.2 0 6.5-2 9-2.3 2.5-5.4 4-8.6 4z"/><path d="M247.7 308.7c-.9 0-1.7-.1-2.6-.3-1.1-.3-111.2-28.6-111.2-125.9V99.1c0-4.6 2.9-8.6 7.2-10.1l103.1-35.7c2.2-.8 4.7-.8 7 0L354.3 89c4.3 1.5 7.2 5.5 7.2 10.1v48.6h-21.3v-41l-92.4-32-92.4 32v75.8c0 73.2 77.4 99.9 92.5 104.4 15.6-4.5 92.4-30.6 92.4-104.4v-6.4h21.3v6.4c0 97.2-110.1 125.6-111.2 125.9-1 .2-1.8.3-2.7.3zm-32-199.1h64v21.3h-64v-21.3zm0 128h64v21.3h-64v-21.3zm-28.4-85.3h120.9v21.3H187.3v-21.3zm0 42.7h120.9v21.3H187.3V195z"/></svg>