<svg xmlns="http://www.w3.org/2000/svg" width="446.9" height="495.4"><path fill="#efefef" d="M86.6 444.4c98.4 0 165.9 51 213.3 51s147-27.2 147-245.3S312.9 0 260.8 0C16.6 0-87.7 444.4 86.6 444.4z"/><path fill="#fcb42d" d="M297.8 251.3H149c-9.7 0-16.7-8.6-13.8-17.1l22.4-66c1.9-5.5 7.5-9.3 13.8-9.3h104c6.3 0 11.9 3.8 13.8 9.3l22.4 66c2.9 8.4-4 17.1-13.8 17.1z"/><g fill="#f3f3f1"><path d="M213.8 350.8c9 0 15.4-8.6 12.8-17.2l-20.7-66c-1.6-5.4-6.8-9.2-12.6-9.2H97.5c-5.8 0-11 3.8-12.6 9.2l-20.7 66c-2.6 8.6 3.8 17.2 12.8 17.2h136.8z"/><path d="M223.6 346.6c2.3 2.6 5.8 4.3 9.7 4.3h136.8c9 0 15.4-8.5 12.8-17.2l-20.6-66c-1.7-5.4-6.8-9.2-12.7-9.2h-95.9c-5.8 0-11 3.8-12.7 9.2l-17.5 56.2.1 22.7z"/></g><path fill="#d5dbe1" d="m92.6 333.7 20.7-66c1.6-5.4 6.8-9.2 12.6-9.2H97.5c-5.8 0-11 3.8-12.6 9.2l-20.7 66c-2.6 8.6 3.8 17.2 12.8 17.2h28.4c-9-.1-15.4-8.7-12.8-17.2zm159.4-9.9 17.5-56.2c1.7-5.4 6.8-9.2 12.7-9.2h-28.4c-5.8 0-11 3.8-12.7 9.2l-17.5 56.2v22.8c2.3 2.6 5.8 4.3 9.7 4.3h28.4c-3.8 0-7.4-1.7-9.7-4.3v-22.8z"/><path d="M297.8 261.9H149c-8.3 0-16.1-3.9-20.8-10.4-4.4-6.1-5.5-13.7-3.1-20.8l22.4-66c3.4-9.9 13-16.5 23.9-16.5h64v21.3h-64c-2 0-3.4 1.1-3.7 2.1l-22.4 66c-.1.2-.3.8.3 1.5.3.4 1.3 1.5 3.4 1.5h148.8c2.2 0 3.2-1.2 3.4-1.5.5-.7.4-1.3.3-1.5l-22.4-66c-.3-1-1.8-2.1-3.7-2.1h-12.9v-21.3h12.9c11 0 20.6 6.7 23.9 16.6l22.4 66c2.4 7.1 1.3 14.6-3.1 20.8-4.7 6.4-12.4 10.3-20.8 10.3z"/><path d="M213.8 361.5H76.9c-7.7 0-14.7-3.5-19.3-9.7-4.6-6.1-5.9-13.9-3.7-21.2l20.7-66.1c3-9.8 12.4-16.7 22.8-16.7h95.7c10.5 0 19.9 6.9 22.9 16.8l20.6 65.9c2.2 7.4.9 15.2-3.7 21.3-4.4 6.2-11.4 9.7-19.1 9.7zM97.5 269c-1.1 0-2.1.7-2.4 1.7l-20.7 66.1c-.3 1 .1 1.8.4 2.2.4.5 1 1.1 2.2 1.1h136.8c1.1 0 1.8-.6 2.2-1.1s.7-1.3.4-2.3l-20.7-65.9c-.3-1.1-1.4-1.8-2.5-1.8H97.5z"/><path d="M370.1 361.5H233.2c-6.8 0-13.2-2.9-17.6-7.8l15.9-14.2c.2.3.9.7 1.7.7H370c1.1 0 1.8-.6 2.2-1.1s.7-1.3.4-2.5L352 270.8c-.3-1-1.4-1.8-2.5-1.8h-95.9c-1.1 0-2.1.8-2.5 1.8L233.7 327l-20.4-6.3 17.5-56.2c3.1-9.9 12.5-16.8 22.9-16.8h95.9c10.4 0 19.7 6.9 22.8 16.7l20.6 66c2.2 7.6.9 15.3-3.7 21.4-4.5 6.2-11.6 9.7-19.2 9.7zM187.3 226.2l-20.3-6.7 11.7-35.6c1.5-4.4 5.5-7.3 10.1-7.3h52.3v21.3h-44.5l-9.3 28.3zm-71.1 99.5L96 319l11.7-35.6c1.5-4.4 5.5-7.3 10.1-7.3h52.3v21.3h-44.5l-9.4 28.3zm156.5 0-20.3-6.7 11.7-35.6c1.5-4.4 5.5-7.3 10.1-7.3h52.3v21.3H282l-9.3 28.3z"/></svg>