<svg xmlns="http://www.w3.org/2000/svg" width="164" height="181.8"><path fill="#efefef" d="M31.8 18.7C67.9 18.7 92.7 0 110 0s54 10 54 90-49.1 91.8-68.3 91.8C6.1 181.8-32.2 18.7 31.8 18.7z"/><path fill="#f3f3f1" d="M57.2 65.9h61.7v45H57.2v-45z"/><path fill="#fbb33b" d="M93.8 75.9h8.3v25h-8.3v-25zm-20 10h8.3v15h-8.3v-15zm48.4-20H53.8a3.33 3.33 0 0 1-3.3-3.3v-3.3a3.33 3.33 0 0 1 3.3-3.3h68.3a3.33 3.33 0 0 1 3.3 3.3v3.3c.1 1.8-1.4 3.3-3.2 3.3z"/><path fill="#d5dbe1" d="M57.2 65.9h7.5v45h-7.5v-45z"/><path d="M68 98.4h40v5H68v-5z"/><path d="M104.7 100.9h-5V78.4h-3.3v22.5h-5v-25c0-1.4 1.1-2.5 2.5-2.5h8.3c1.4 0 2.5 1.1 2.5 2.5v25zm-20 0h-5V88.4h-3.3v12.5h-5v-15c0-1.4 1.1-2.5 2.5-2.5h8.3c1.4 0 2.5 1.1 2.5 2.5v15zm37.5-32.5H53.8c-3.2 0-5.8-2.6-5.8-5.8v-3.3c0-3.2 2.6-5.8 5.8-5.8h68.3c3.2 0 5.8 2.6 5.8 5.8v3.3c.1 3.2-2.5 5.8-5.7 5.8zm-68.4-10c-.5 0-.8.4-.8.8v3.3c0 .5.4.8.8.8h68.3c.5 0 .8-.4.8-.8v-3.3c0-.5-.4-.8-.8-.8H53.8zm-2.5 50h73.3v5H51.3v-5z"/><path d="M85.5 111.7h5v19.2h-5v-19.2z"/><path d="M100.2 132.4 88 116l-12.2 16.4-4-3L86 110.3c.9-1.3 3.1-1.3 4 0l14.2 19.2-4 2.9zm16.1-66.5h5v45h-5v-45zm-61.6 0h5v45h-5v-45z"/></svg>