<svg xmlns="http://www.w3.org/2000/svg" width="256" height="254.6"><circle cx="127.4" cy="115.2" r="55" fill="#f3f3f1"/><path d="M127.4 178.1c-34.7 0-62.8-28.2-62.8-62.8s28.2-62.8 62.8-62.8 62.8 28.2 62.8 62.8-28.1 62.8-62.8 62.8zm0-110c-26 0-47.1 21.1-47.1 47.1s21.1 47.1 47.1 47.1 47.1-21.1 47.1-47.1-21.1-47.1-47.1-47.1zm-7.8 65.4h15.7v23.6h-15.7v-23.6z"/><path d="M119.6 73.3h15.7v23.6h-15.7V73.3z"/><path d="M128.8 146.6h-22.3v-15.7h22.3c2.2 0 3.9-1.8 3.9-3.9s-1.8-3.9-3.9-3.9h-2.6c-10.8 0-19.6-8.8-19.6-19.6s8.8-19.6 19.6-19.6h22.3v15.7h-22.3c-2.2 0-3.9 1.8-3.9 3.9 0 2.2 1.8 3.9 3.9 3.9h2.6c10.8 0 19.6 8.8 19.6 19.6s-8.8 19.6-19.6 19.6zm-1.4 84.3v-15.7c55 0 99.7-44.7 99.7-99.7h15.7c.1 63.6-51.7 115.4-115.4 115.4zm94-148.5c-13.9-39.9-51.6-66.7-94-66.7-22.7 0-44 7.4-61.5 21.5L56.1 25c20.3-16.3 45-25 71.3-25 49 0 92.8 31 108.8 77.2l-14.8 5.2zM89 224.2c-46-16.1-77-59.8-77-108.8 0-23.3 6.9-45.6 19.9-64.6l12.9 8.9C33.6 76 27.7 95.2 27.7 115.3c0 42.3 26.7 80.1 66.5 94L89 224.2z"/><path d="m142.8 254.6-26-26c-1.5-1.5-2.3-3.5-2.3-5.6s.8-4.1 2.3-5.6l26-26 11.1 11.1-20.5 20.5 20.5 20.5-11.1 11.1zM41.7 89.2l-7.9-29.7-29.7 8L0 52.3l37.3-10c2-.5 4.1-.3 6 .8 1.8 1 3.1 2.8 3.7 4.8l10 37.3-15.3 4zm188.2 4.4c-1.3 0-2.7-.3-3.9-1.1l-33.4-19.3 7.9-13.6L227 75l15.4-26.6 13.6 7.9-19.3 33.4c-1.4 2.4-4.1 3.9-6.8 3.9z"/></svg>