<svg xmlns="http://www.w3.org/2000/svg" width="256" height="256"><path fill="#fcb42d" d="M248 72v16H8V72L128 8l120 64z"/><path fill="#f3f3f1" d="M40 88h176v160H40V88z"/><path fill="#d5dbe1" d="M40 88h24v160H40V88z"/><path d="M248 96H8c-4.4 0-8-3.6-8-8V72c0-3 1.6-5.7 4.2-7.1l120-64c2.4-1.2 5.2-1.2 7.5 0l120 64c2.6 1.4 4.2 4.1 4.2 7.1v16c.1 4.4-3.5 8-7.9 8zM16 80h224v-3.2L128 17.1 16 76.8V80zM8 240h240v16H8v-16zm124.1-42.7h-22.7v-16h22.7c3.6 0 6.6-3 6.6-6.6 0-3.8-3-6.7-6.6-6.7H124a22.58 22.58 0 0 1-22.6-22.6c0-12.6 10.1-22.7 22.6-22.7h22.7v16H124c-3.6 0-6.6 3-6.6 6.6 0 3.8 3 6.7 6.6 6.7h8.1a22.58 22.58 0 0 1 22.6 22.6c0 12.6-10.2 22.7-22.6 22.7z"/><path d="M120 114.7h16v16h-16v-16zm0 74.6h16v16h-16v-16zM32 88h16v160H32V88zm176 0h16v160h-16V88z"/></svg>