<svg xmlns="http://www.w3.org/2000/svg" width="341.3" height="341.4"><path fill="#f3f3f1" d="M280.8 171.5c-3.5 9-8.1 17.6-13.6 25.4-13.1 18.8-20.2 41-20.2 63.8v70H121.9v-55.6L79.3 288c-1.9.7-4 1-6.1 1-11.5 0-20.9-9.3-20.9-20.8v-48.7H17.6c-3.9 0-7-3.1-7-7 0-1.4.4-2.6 1.1-3.8l32.5-51.6c5.3-8.3 8.1-18.1 8.1-28.1 0-32.5 13.2-62.2 34.6-83.6 10-10 22-18.3 35.2-24.2 0 .2 177.7-45.6 158.7 150.3z"/><g fill="#fcb42d"><path d="M181.3 67.6v34.8c0 4.9 2.5 9.6 6.7 12.1 37.5 22.8 70 22.8 107.5 0 4.2-2.5 6.7-7.2 6.7-12.1V67.6H181.3z"/><path d="m152.8 49.8 88.9-39.1 88.9 39.1-88.9 39.1-88.9-39.1z"/></g><path fill="#d5dbe1" d="M80.8 268.1v-48.7H52.4v48.7c0 11.5 9.3 20.8 20.9 20.8 2.1 0 4.2-.3 6.1-1l10.1-3.1c-5.3-3.6-8.7-9.7-8.7-16.7zM39 212.5c0-1.4.4-2.6 1.1-3.8l32.5-51.6c5.3-8.3 8.1-18.1 8.1-28.1 0-32.5 13.2-62.2 34.6-83.6 10-10 22-18.3 35.2-24.2 0 0 11.1-2.9 27.4-4.1-30.5-2.4-55.9 4.1-55.9 4.1-13.2 5.8-25.2 14.2-35.2 24.2-21.4 21.4-34.6 51-34.6 83.6 0 10-2.8 19.7-8.1 28.1l-32.5 51.6a7.04 7.04 0 0 0-1.1 3.8c0 3.9 3.1 7 7 7h28.4c-3.8 0-6.9-3.1-6.9-7zm82.9 71.2v47h28.4v-55.6l-28.4 8.6z"/><path d="M247 341.4H121.9c-5.9 0-10.7-4.8-10.7-10.7v-41.2l-28.8 8.7c-2.5.9-5.7 1.4-9.2 1.4-17.4 0-31.5-14.1-31.5-31.5v-38H17.6c-9.7 0-17.6-7.9-17.6-17.6 0-3.3.9-6.6 2.7-9.4l32.6-51.6c4.2-6.6 6.4-14.4 6.4-22.4 0-34.4 13.4-66.8 37.8-91.1 11.1-11.1 24.3-20.2 38.4-26.4l9.8-4.3 8.6 19.5-9.8 4.3c-11.7 5.1-22.7 12.7-32 22-20.3 20.3-31.5 47.3-31.5 76 0 12.1-3.4 23.7-9.7 33.8l-29 45.9h28c5.9 0 10.7 4.8 10.7 10.7v48.7c0 5.6 4.6 10.2 10.2 10.2 1.3 0 2.1-.2 2.5-.3l43-13.1c3.2-1 6.7-.4 9.5 1.6 2.7 2 4.3 5.2 4.3 8.6v44.9h103.8v-59.3c0-25 7.6-49.2 22.1-69.9 5.1-7.1 9.2-14.8 12.4-23.2l3.8-10 19.9 7.7-3.8 9.9c-3.9 10-8.9 19.4-14.9 27.8-11.9 17-18.2 37-18.2 57.6v70c.1 5.9-4.7 10.7-10.6 10.7zm-5.3-199.1c-19.4 0-38.8-6.2-59.3-18.7-7.3-4.4-11.8-12.6-11.8-21.3V56.8h21.3v45.5c0 1.2.6 2.5 1.6 3 34.2 20.8 62.2 20.8 96.4 0 .9-.6 1.6-1.8 1.6-3V56.8h21.3v45.5c0 8.7-4.5 16.8-11.8 21.3-20.5 12.5-39.9 18.7-59.3 18.7z"/><path d="M241.7 99.6c-1.5 0-2.9-.3-4.3-.9l-88.9-39.1a10.62 10.62 0 0 1-6.4-9.8c0-4.2 2.5-8 6.4-9.8L237.4.9c2.7-1.2 5.9-1.2 8.6 0L334.9 40a10.62 10.62 0 0 1 6.4 9.8c0 4.2-2.5 8-6.4 9.8L246 98.7c-1.4.6-2.8.9-4.3.9zm-62.4-49.8 62.4 27.5 62.4-27.5-62.4-27.5-62.4 27.5z"/></svg>