<svg xmlns="http://www.w3.org/2000/svg" width="496.4" height="492.7"><path fill="#efefef" d="M41.2 330c86.2 47.4 120.8 124.6 162.4 147.4 41.5 22.8 141.9 46.9 247-144.2S453.7 49.6 408 24.5C194-93.1-111.5 246.1 41.2 330z"/><path fill="#d5dbe1" d="M262.4 174.6c0-43.6 31.4-79.8 72.9-87.4-5.2-.9-10.5-1.5-16-1.5-49.1 0-88.9 39.8-88.9 88.9s39.8 88.9 88.9 88.9c5.5 0 10.8-.6 16-1.5-41.4-7.6-72.9-43.8-72.9-87.4z"/><path fill="#fcb42d" d="M109.6 405.7H330c11.8 0 21.3-9.6 21.3-21.3V249.2c0-11.8-9.6-21.3-21.3-21.3H109.6c-11.8 0-21.3 9.6-21.3 21.3v135.1c-.1 11.8 9.5 21.4 21.3 21.4z"/><circle cx="219.8" cy="316.8" r="32" fill="#f3f3f1"/><path fill="#a4afc1" d="M418.9 359.5c-11.8 0-21.3-9.6-21.3-21.3 0-11.8 9.6-21.3 21.3-21.3 11.8 0 21.3 9.6 21.3 21.3s-9.6 21.3-21.3 21.3zm0-28.5a7.13 7.13 0 0 0-7.1 7.1 7.13 7.13 0 0 0 7.1 7.1 7.13 7.13 0 0 0 7.1-7.1 7.13 7.13 0 0 0-7.1-7.1z"/><path d="M219.8 359.5c-23.5 0-42.7-19.1-42.7-42.7s19.1-42.7 42.7-42.7 42.7 19.1 42.7 42.7-19.2 42.7-42.7 42.7zm0-64c-11.8 0-21.3 9.6-21.3 21.3s9.6 21.3 21.3 21.3c11.8 0 21.3-9.6 21.3-21.3s-9.6-21.3-21.3-21.3zM330 416.4H109.6c-17.6 0-32-14.4-32-32V249.2c0-17.6 14.4-32 32-32H330c17.6 0 32 14.4 32 32v135.1c0 17.7-14.4 32.1-32 32.1zM109.6 238.6c-5.9 0-10.7 4.8-10.7 10.7v135.1c0 5.9 4.8 10.7 10.7 10.7H330c5.9 0 10.7-4.8 10.7-10.7V249.2c0-5.9-4.8-10.7-10.7-10.7H109.6zm223.9-45.3a8.71 8.71 0 0 0-8.7-8H314c-16.6 0-30.2-13.5-30.2-30.2 0-16.8 13.5-30.3 30.2-30.3h30.3v21.3H314a8.75 8.75 0 0 0-8.8 8.8c0 5.1 3.9 9 8.8 9h10.8c15.7 0 28.6 11.8 30 27.5l-21.3 1.9z"/><path d="M308.7 114.1H330v21.3h-21.3v-21.3zM130.9 259.9h21.3v21.3h-21.3v-21.3zm156.4 92.5h21.3v21.3h-21.3v-21.3zM395 239.3l-16.2-13.9c12.1-14 18.7-32 18.7-50.8 0-43.1-35.1-78.2-78.2-78.2s-78.2 35.1-78.2 78.2c0 5.5.5 10.6 1.6 15.5l-20.8 4.6c-1.4-6.4-2.1-13-2.1-20.1 0-54.9 44.7-99.6 99.6-99.6s99.6 44.7 99.6 99.6c-.1 23.8-8.6 46.8-24 64.7z"/></svg>