<svg xmlns="http://www.w3.org/2000/svg" width="1254" height="710.2" fill="#fff" opacity=".02"><path d="M626.9 417.8v161.7l-74.6 130.7H601L666.3 596c1.8-3.1 2.9-6.8 2.9-10.4v-41.8h119.1L895.1 615l-31.8 95.2h43.3l32.6-97.8c2.9-8.9-.3-18.8-8.4-24L863 543.2h90.1c14.4 11.5 30.6 20.1 48.1 25.3L966 710.2h43.2l32.3-129.2 61.4 18.3-31.9 110.9h43.3l34.2-119.5c3.1-11-3.1-22.5-14.1-25.9L1014.8 529c-44.4-13.1-74.7-53.8-74.4-100v-32.1h-41.8V429c0 25.3 6.5 50.4 19.1 72.4h-249v-83.6h-41.8zm-543.3 0h20.9V585c0 11.5 9.4 20.9 20.9 20.9H209c5.5 0 11-2.1 14.9-6l56.7-56.7h32.9v36.3l-74.6 130.7h48l65.7-114.8c1.8-3.1 2.9-6.8 2.9-10.4v-41.8h62.7v36.3h-.3l-74.6 130.7h48.4l65.4-114.5c1.8-3.1 2.9-6.8 2.9-10.4v-41.8h62.7v36.3l-74.4 130.5h47.6l65.7-114.8c1.8-3.1 2.9-6.8 2.9-10.4V459.6h-41.8v41.8H271.9c-5.5 0-11 2.1-14.9 6l-56.7 56.7h-54.1V396.9c0-11.5-9.4-20.9-20.9-20.9H83.6c-23 0-41.8-18.8-41.8-41.8V278c6.8 4.7 11.8 11.2 14.4 18.8l7.6 23c2.9 8.6 10.7 14.4 19.9 14.4h271.6c8.9 0 17-5.7 19.9-14.4l7.6-23c2.6-7.6 7.6-14.4 14.4-18.8v56.2c0 23-18.8 41.8-41.8 41.8h-62.7v41.8h62.7c46.2 0 83.6-37.4 83.6-83.6v-83.6c0-11.5-9.4-20.9-20.9-20.9-34 0-64 21.7-74.7 53.8l-2.9 8.9H182.1L390.8 114c.3-.3.5-.5.8-.5 94.3-88 238.2-95.9 341.6-18.3l32.1 24C806.3 150 857 167 909 167c109.7 0 198.5 88.8 198.5 198.5v73.1c0 5.5 2.1 11 6 14.9l96.4 96.4-35.5 160.2h43.1l36-162.1c1.6-7.1-.5-14.4-5.7-19.3l-98.5-98.7v-64.5c0-11.8-.8-23.5-2.6-35 11 7.1 23.8 10.7 36.8 10.7 36.8 0 67.4-28.5 70-65 1.6-20.4-6-40.2-20.4-54.6l-68.7-68.7c-11-11-11-29 0-40 5.2-5.2 12.5-8.4 20.1-8.4h48.3c11.5 0 20.9-9.4 20.9-20.9s-9.4-20.9-20.9-20.9h-48.3c-28.7-.5-54.9 17-65 43.6-10.4 26.4-3.9 56.7 16.5 76.5l67.9 67.9c11 11 11 29 0 40-2.6 2.6-5.5 4.4-8.9 6-9.7 4.4-21.2 2.6-29.3-4.2l-41.8-34.7c-41-81.5-124.6-132.9-215.7-132.7-42.6 0-84.1-13.8-118.1-39.7l-29.5-22.2C708.9 24.5 647 2.5 582.5.2c-81.2-2.6-160.1 26.9-219.4 82.5L117.5 292.4h-19l-2.9-8.9c-10.4-32.1-40.7-53.8-74.7-53.8-11.5.1-20.9 9.5-20.9 20.9v83.6c0 46.3 37.4 83.6 83.6 83.6z"/></svg>