<svg xmlns="http://www.w3.org/2000/svg" width="341.5" height="341.4"><path fill="#f3f3f1" d="M81.9 10.7h234.7c7.9 0 14.2 6.4 14.2 14.2v163.6c0 7.9-6.4 14.2-14.2 14.2H81.9c-7.9 0-14.2-6.4-14.2-14.2V24.9c0-7.8 6.4-14.2 14.2-14.2z"/><g fill="#fcb42d"><path d="M238.4 53.4H274v106.7h-35.6V53.4zm-64 106.6h-7.1c-7.9 0-14.2-6.4-14.2-14.2v-35.6c0-7.9 6.4-14.2 14.2-14.2h7.1c7.9 0 14.2 6.4 14.2 14.2v35.6c0 7.9-6.4 14.2-14.2 14.2z"/><circle cx="71.2" cy="42.7" r="32"/><path d="M10.8 152.9c0-23.6 19.1-42.7 42.7-42.7h35.6c23.6 0 42.7 19.1 42.7 42.7v55.2c0 5.4-3 10.3-7.9 12.7l-12.7 6.4c-4.8 2.4-7.9 7.3-7.9 12.7v76.5c0 7.9-6.4 14.2-14.2 14.2H53.5c-7.9 0-14.2-6.4-14.2-14.2v-76.5c0-5.4-3-10.3-7.9-12.7l-12.7-6.4c-4.8-2.4-7.9-7.3-7.9-12.7v-55.2z"/></g><path fill="#d5dbe1" d="M99.7 57.3v54.4c-3.4-1-7-1.4-10.7-1.4H67.7V74.6c1.1.1 2.4.1 3.6.1 12.3 0 23-7 28.4-17.4zM77.6 11.4c1.3-.4 2.8-.7 4.3-.7h32c-7.8 0-14.2 6.4-14.2 14.2V28c-4.4-8.5-12.4-14.7-22.1-16.6z"/><path fill="#fcb42d" d="M238.4 53.4h32v106.7h-32V53.4zM185 145.8v-35.6c0-2.4.7-4.5 1.8-6.5-2.4-4.5-7-7.7-12.4-7.7h-7.1c-7.9 0-14.2 6.4-14.2 14.2v35.6c0 7.9 6.4 14.2 14.2 14.2h7.1c5.5 0 10.1-3.2 12.4-7.7-1-2-1.8-4.1-1.8-6.5z"/><path d="M199.2 170.7h-21.3v-64h-21.3V85.4h32c5.9 0 10.7 4.8 10.7 10.7v74.6h-.1z"/><path d="M170.8 149.4h128v21.3h-128v-21.3zm-99.6-64c-23.5 0-42.7-19.1-42.7-42.7S47.6 0 71.2 0s42.7 19.1 42.7 42.7-19.1 42.7-42.7 42.7zm0-64c-11.8 0-21.3 9.6-21.3 21.3S59.5 64 71.2 64c11.8 0 21.3-9.6 21.3-21.3S83 21.4 71.2 21.4zm17.8 320H53.4c-13.7 0-24.9-11.2-24.9-24.9V240c0-1.4-.8-2.6-2-3.2l-12.7-6.4C5.3 226.2 0 217.6 0 208.1v-55.2c0-29.4 23.9-53.3 53.3-53.3h35.6c29.4 0 53.3 23.9 53.3 53.3v55.2c0 9.5-5.3 18-13.8 22.3l-12.7 6.4c-1.2.6-1.9 1.8-1.9 3.2v76.5c.1 13.7-11.1 24.9-24.8 24.9zM53.5 120.9c-17.6 0-32 14.4-32 32v55.2c0 1.4.8 2.6 2 3.2l12.7 6.4C44.7 221.9 50 230.5 50 240v76.5c0 2 1.6 3.6 3.6 3.6h35.6c2 0 3.6-1.6 3.6-3.6V240c0-9.5 5.3-18 13.8-22.3l12.7-6.4c1.2-.6 2-1.8 2-3.2v-55.2c0-17.6-14.4-32-32-32H53.5zm263.1 92.5H170.8v-21.3h145.8c2 0 3.6-1.6 3.6-3.6V24.9c0-2-1.6-3.6-3.6-3.6H142.4V0h174.2c13.7 0 24.9 11.2 24.9 24.9v163.6c0 13.7-11.2 24.9-24.9 24.9z"/><path d="m243.9 274.6-44.7-55-44.7 55-16.6-13.5 52.9-65.2c4.1-5 12.5-5 16.6 0l52.9 65.2-16.4 13.5zM284.6 160h-21.3V64h-14.2v96h-21.3V53.4c0-5.9 4.8-10.7 10.7-10.7h35.6c5.9 0 10.7 4.8 10.7 10.7V160h-.2z"/></svg>