<svg xmlns="http://www.w3.org/2000/svg" width="496.5" height="492.7"><path fill="#efefef" d="M41.2 330.1c86.2 47.4 120.8 124.6 162.4 147.4 41.5 22.8 141.9 46.9 247-144.2S453.7 49.6 408 24.5C194-93.1-111.5 246.1 41.2 330.1z"/><path fill="#f3f3f1" d="M365.5 406.4H130.9v-35.6c0-15.7 12.7-28.4 28.4-28.4h177.8c15.7 0 28.4 12.7 28.4 28.4v35.6z"/><path fill="#fcb42d" d="M159.3 342.4V100.6c0-10 10-16.9 19.3-13.3L327.9 154c5.5 2.1 9.1 7.4 9.1 13.3v175.1H159.3z"/><path fill="#f3f3f1" d="m248.2 171.7 16.5 35.1 36.8 5.6-26.7 27.3 6.4 38.7-33-18.2-33 18.2 6.3-38.6-26.7-27.3 36.8-5.6 16.6-35.2z"/><path fill="#d5dbe1" d="M187.8 342.4h-28.4c-15.7 0-28.4 12.7-28.4 28.4v35.6h28.4v-35.6c-.1-15.7 12.6-28.4 28.4-28.4z"/><path d="M365.5 417.1H130.9c-5.9 0-10.7-4.8-10.7-10.7v-35.6c0-21.6 17.5-39.1 39.1-39.1h177.8c21.6 0 39.1 17.5 39.1 39.1v35.6c0 5.9-4.8 10.7-10.7 10.7zm-224-21.4h213.3v-24.9c0-9.8-8-17.8-17.8-17.8H159.3c-9.8 0-17.8 8-17.8 17.8v24.9z"/><path d="M347.8 342.4h-21.3V167.3c0-1.5-.9-2.8-2.3-3.3L174.3 97.1c-1-.3-2.2.2-2.8.6s-1.5 1.3-1.5 2.9v68h-21.3v-68c0-8.2 4-15.9 10.8-20.5 6.8-4.7 15.4-5.7 23-2.7l149.8 66.9c9 3.4 15.4 12.8 15.4 23l.1 175.1zm-199.2-128h21.3v128h-21.3v-128zm132.6 74.7c-1.8 0-3.6-.4-5.2-1.3l-27.8-15.4-27.8 15.4c-3.6 2-8 1.7-11.3-.6-3.3-2.4-5-6.4-4.4-10.4l5.4-33.3-22.9-23.6c-2.8-2.9-3.8-7.1-2.5-10.8 1.3-3.8 4.6-6.5 8.5-7.2l31.2-4.8 14.1-30c3.5-7.5 15.8-7.5 19.3 0l14.1 30 31.2 4.8c4 .6 7.2 3.4 8.5 7.2a10.5 10.5 0 0 1-2.5 10.8l-22.8 23.5 5.4 33.3a10.41 10.41 0 0 1-4.4 10.4c-1.8 1.3-4 2-6.1 2zm-33-39.6c1.8 0 3.6.4 5.2 1.3l13.7 7.6-2.8-16.9c-.5-3.3.5-6.7 2.9-9.2l12.2-12.5-16.3-2.5c-3.5-.5-6.5-2.8-8-6l-6.8-14.5-6.8 14.5c-1.5 3.2-4.5 5.5-8 6l-16.3 2.5 12.2 12.5c2.4 2.4 3.4 5.8 2.9 9.2l-2.8 16.9 13.7-7.6c1.4-.8 3.2-1.3 5-1.3z"/></svg>