<svg xmlns="http://www.w3.org/2000/svg" width="305.8" height="341.4"><path fill="#f3f3f1" d="M53.3 231.1H24.9c-7.9 0-14.2-6.4-14.2-14.2V110.3c0-7.9 6.4-14.2 14.2-14.2h28.4c7.9 0 14.2 6.4 14.2 14.2V217c0 7.8-6.3 14.1-14.2 14.1zm227.6-42.6h-28.4c-7.9 0-14.2-6.4-14.2-14.2V67.6c0-7.9 6.4-14.2 14.2-14.2h28.4c7.9 0 14.2 6.4 14.2 14.2v106.7c0 7.8-6.4 14.2-14.2 14.2z"/><path fill="#fcb42d" d="M167.1 273.8h-28.4c-7.9 0-14.2-6.4-14.2-14.2V152.9c0-7.9 6.4-14.2 14.2-14.2h28.4c7.9 0 14.2 6.4 14.2 14.2v106.7c0 7.8-6.4 14.2-14.2 14.2z"/><path fill="#d5dbe1" d="M42.6 216.9V110.3c0-7.2 5.5-13 12.4-13.9-.6-.1-1.2-.4-1.8-.4H24.8c-7.9 0-14.2 6.4-14.2 14.2v106.7c0 7.9 6.4 14.2 14.2 14.2h28.5c.6 0 1.2-.3 1.8-.4-7-.8-12.5-6.6-12.5-13.8zm227.6-42.6V67.6c0-7.2 5.5-13 12.4-13.9-.6-.1-1.2-.4-1.8-.4h-28.4c-7.9 0-14.2 6.4-14.2 14.2v106.7c0 7.9 6.4 14.2 14.2 14.2h28.4c.6 0 1.2-.3 1.8-.4-6.9-.8-12.4-6.5-12.4-13.7z"/><path d="M53.3 241.8H24.9C11.2 241.8 0 230.6 0 216.9V110.3c0-13.7 11.2-24.9 24.9-24.9h28.4c13.7 0 24.9 11.2 24.9 24.9V217c0 13.6-11.2 24.8-24.9 24.8zM24.9 106.7c-2 0-3.6 1.6-3.6 3.6V217c0 2 1.6 3.6 3.6 3.6h28.4c2 0 3.6-1.6 3.6-3.6V110.3c0-2-1.6-3.6-3.6-3.6H24.9z"/><path d="M28.4 0h21.3v106.7H28.4V0zm0 220.5h21.3v120.9H28.4V220.5zm138.7 64h-28.4c-13.7 0-24.9-11.2-24.9-24.9V152.9c0-13.7 11.2-24.9 24.9-24.9h28.4c13.7 0 24.9 11.2 24.9 24.9v106.7c0 13.7-11.2 24.9-24.9 24.9zm-28.5-135.1c-2 0-3.6 1.6-3.6 3.6v106.7c0 2 1.6 3.6 3.6 3.6H167c2 0 3.6-1.6 3.6-3.6V152.9c0-2-1.6-3.6-3.6-3.6h-28.4v.1z"/><path d="M142.2 0h21.3v149.3h-21.3V0zm0 263.1h21.3v78.2h-21.3v-78.2zm138.7-64h-28.4c-13.7 0-24.9-11.2-24.9-24.9V67.6c0-13.7 11.2-24.9 24.9-24.9h28.4c13.7 0 24.9 11.2 24.9 24.9v106.7c-.1 13.7-11.2 24.8-24.9 24.8zM252.4 64c-2 0-3.6 1.6-3.6 3.6v106.7c0 2 1.6 3.6 3.6 3.6h28.4c2 0 3.6-1.6 3.6-3.6V67.6c0-2-1.6-3.6-3.6-3.6h-28.4z"/><path d="M256 0h21.3v64H256V0zm0 177.8h21.3v163.6H256V177.8z"/></svg>