<svg xmlns="http://www.w3.org/2000/svg" width="495.4" height="446.9"><path fill="#efefef" d="M51 360.3C51 261.9 0 194.4 0 147S27.2 0 245.3 0s250.1 133.9 250.1 186.1C495.4 430.2 51 534.5 51 360.3z"/><path fill="#f3f3f1" d="M165.9 340.8h-64V170.1c0-3.9 3.2-7.1 7.1-7.1h49.8c3.9 0 7.1 3.2 7.1 7.1v170.7z"/><path fill="#fcb42d" d="M279.7 340.8h-64V113.2c0-3.9 3.2-7.1 7.1-7.1h49.8c3.9 0 7.1 3.2 7.1 7.1v227.6z"/><path fill="#f3f3f1" d="M393.5 340.8h-64v-128c0-3.9 3.2-7.1 7.1-7.1h49.8c3.9 0 7.1 3.2 7.1 7.1v128z"/><path fill="#d5dbe1" d="M141 163h-32a7.13 7.13 0 0 0-7.1 7.1v170.7h32V170.1a7.13 7.13 0 0 1 7.1-7.1zm227.6 42.7h-32a7.13 7.13 0 0 0-7.1 7.1v128h32v-128c0-4 3.2-7.1 7.1-7.1z"/><path d="M20.1 330.1h455.1v21.3H20.1v-21.3z"/><path d="M165.9 351.4h-64c-5.9 0-10.7-4.8-10.7-10.7V170.1c0-9.8 8-17.8 17.8-17.8h49.8c9.8 0 17.8 8 17.8 17.8v170.7c0 5.9-4.8 10.6-10.7 10.6zm-53.3-21.3h42.7V173.7h-42.7v156.4zm167.1 21.3h-64c-5.9 0-10.7-4.8-10.7-10.7V113.2c0-9.8 8-17.8 17.8-17.8h49.8c9.8 0 17.8 8 17.8 17.8v227.6c0 5.9-4.8 10.6-10.7 10.6zm-53.3-21.3H269V116.8h-42.7v213.3zm167.1 21.3h-64c-5.9 0-10.7-4.8-10.7-10.7v-128c0-9.8 8-17.8 17.8-17.8h49.8c9.8 0 17.8 8 17.8 17.8v128c-.1 6-4.8 10.7-10.7 10.7zm-53.4-21.3h42.7V216.3h-42.7v113.8z"/></svg>