<svg xmlns="http://www.w3.org/2000/svg" width="256" height="256"><path fill="#f3f3f1" d="M168.5 130.2c23-20.7 47.9-39.5 74.6-56.4 3.1-2 5.1-5.5 4.9-9.2-1.9-35.9-20.7-54.7-56.6-56.6-3.6-.2-7.2 1.8-9.2 4.9-17.7 27.9-37.5 53.7-59.2 77.5l-32.7 32.7c-23.8 21.7-49.7 41.4-77.5 59.2-3.1 2-5.1 5.5-4.9 9.2 1.9 35.9 20.7 54.7 56.5 56.5 3.6.2 7.2-1.8 9.2-4.9a563.46 563.46 0 0 1 56.4-74.6l38.5-38.3z"/><path fill="#d5dbe1" d="M29.3 191.4c-.2-3.6 1.8-7.2 4.9-9.2 27.9-17.7 53.7-37.5 77.5-59.2l32.7-32.7c21.7-23.8 41.4-49.7 59.2-77.5.7-1.1 1.7-2 2.7-2.8-4.6-1-9.5-1.8-14.8-2.1-3.6-.2-7.2 1.8-9.2 4.9-17.7 27.9-37.4 53.7-59.2 77.5L90.4 123c-23.8 21.7-49.7 41.4-77.5 59.2-3.1 2-5.1 5.5-4.9 9.2 1.9 35.9 20.7 54.7 56.5 56.5 2.3.1 4.6-.7 6.5-2.1-26.1-5.9-40.1-23.9-41.7-54.4z"/><path fill="#f3f3f1" d="m18.5 177.5-7-21.1c-1.9-5.6 1.3-11.5 7-13.3 62.9-20 104-61.3 122.5-124.7 1.7-5.7 7.5-9 13.1-7.3l23.6 7.3c-.2.1-78.6 120.7-159.2 159.1z"/><path fill="#fcb42d" d="m82.7 109.3 72 85.3L160 160l34.7-5.3-85.3-72-26.7 26.6z"/><path d="M65.1 256h-1c-39.8-2.1-62-24.3-64.1-64.1-.4-6.5 2.9-12.8 8.6-16.4C36.1 158 61.8 138.4 85 117.2l5.9-5.4 10.8 11.8-5.9 5.4c-23.9 21.8-50.4 42-78.6 60-.7.5-1.2 1.3-1.2 2 1.7 31.8 17.2 47.3 49 49 .7 0 1.6-.5 2-1.2 17-26.9 36.3-52.4 57.2-75.7l5.4-6 11.9 10.7-5.4 5.9c-20.4 22.6-39.1 47.4-55.6 73.5-3.4 5.5-9.2 8.8-15.4 8.8zm102.8-114.5-10.7-11.9 6-5.4c23.3-20.9 48.7-40.2 75.7-57.3.7-.5 1.2-1.3 1.2-2-1.7-31.8-17.2-47.3-49-49-.7.1-1.6.5-2 1.2-18 28.2-38.2 54.7-60 78.6l-5.4 5.9-11.8-10.8 5.4-5.9c21.2-23.3 40.8-49 58.3-76.4 3.6-5.7 9.9-8.9 16.4-8.6C231.8 2 254 24.2 256.1 64c.4 6.5-2.9 12.8-8.6 16.4C221.3 97 196.6 115.7 174 136l-6.1 5.5z"/><path d="M13.4 187.7 3.8 159c-1.6-4.7-1.2-9.7 1.1-14.1 2.3-4.5 6.2-7.8 11.1-9.4 61.1-19.4 99.5-58.4 117.2-119.3 1.4-4.9 4.7-8.9 9.1-11.3 4.3-2.3 9.3-2.8 14-1.4l31.2 9.6-4.7 15.3-31.2-9.6c-.6-.2-1.2-.1-1.7.2-.4.2-1 .7-1.3 1.7C129.4 86.2 86.5 130 20.8 150.8c-1 .3-1.5 1-1.6 1.4-.3.6-.3 1.2-.1 1.8l9.5 28.7-15.2 5z"/><path d="M154.7 202.6c-2.3 0-4.6-1-6.1-2.8l-77.1-91.4 12.2-10.3 65.8 78 2.7-17.3c.5-3.4 3.2-6.2 6.7-6.7l17.3-2.7-78-65.8 10.3-12.2 91.4 77.1c2.4 2 3.4 5.3 2.5 8.3a7.83 7.83 0 0 1-6.5 5.7L167 167l-4.4 28.9c-.5 3.1-2.7 5.6-5.7 6.5-.8.2-1.5.2-2.2.2z"/></svg>