<svg xmlns="http://www.w3.org/2000/svg" width="446.9" height="495.4"><path fill="#efefef" d="M86.6 51C185 51 252.5 0 299.9 0s147 27.2 147 245.3-134 250.1-186.1 250.1C16.6 495.4-87.7 51 86.6 51z"/><path fill="#f3f3f1" d="M106.1 116.1h177.8V365H106.1V116.1z"/><path fill="#2fdf84" d="M170.1 116.1h-35.6v-14.2c0-7.9 6.4-14.2 14.2-14.2h7.1c7.9 0 14.2 6.4 14.2 14.2v14.2z"/><path fill="#fcb42d" d="M355 353.4c0 30-23.9 54.3-53.3 54.3s-53.3-24.3-53.3-54.3c0-33.9 53.3-95 53.3-95s53.3 61 53.3 95z"/><path fill="#d5dbe1" d="M106.1 116.1h32V365h-32V116.1z"/><path fill="#fcb42d" d="M168.3 95.4c-2.4-4.5-7-7.7-12.4-7.7h-7.1c-7.9 0-14.2 6.4-14.2 14.2v14.2h32v-14.2c-.1-2.4.7-4.5 1.7-6.5z"/><path d="M202.1 375.7h-96c-5.9 0-10.7-4.8-10.7-10.7V116.1c0-5.9 4.8-10.7 10.7-10.7h177.8c5.9 0 10.7 4.8 10.7 10.7v110.2h-21.3v-99.6H116.8v227.6h85.3v21.4z"/><path d="M170.1 126.8h-35.6c-5.9 0-10.7-4.8-10.7-10.7v-14.2c0-13.7 11.2-24.9 24.9-24.9h7.1c13.7 0 24.9 11.2 24.9 24.9v14.2c.1 5.9-4.7 10.7-10.6 10.7zm-24.9-21.3h14.2v-3.6c0-2-1.6-3.6-3.6-3.6h-7.1c-2 0-3.6 1.6-3.6 3.6v3.6z"/><path d="M81.2 105.5h227.6v21.3H81.2v-21.3zm0 248.9h103.1v21.3H81.2v-21.3zm0-124.5h184.9v21.3H81.2v-21.3zm220.5 188.5c-35.3 0-64-29.1-64-65 0-36.9 50.2-95.5 56-102 4.1-4.6 12-4.6 16.1 0 5.7 6.6 56 65.2 56 102-.1 35.8-28.9 65-64.1 65zm0-143.4c-16.6 20.7-42.7 57.7-42.7 78.4 0 24.1 19.1 43.6 42.7 43.6s42.7-19.6 42.7-43.6c-.1-19-23.7-54.7-42.7-78.4z"/></svg>