<svg xmlns="http://www.w3.org/2000/svg" width="135" height="39.9"><path d="M8.7 39.9h-1c-.6 0-1.4 0-2.1-.2-.7-.1-1.3-.3-1.9-.6-.7-.2-1.2-.6-1.7-1s-.9-.9-1.2-1.5c-.3-.5-.5-1.1-.6-1.7l-.2-2V7c0-.5.1-1.3.2-2 .1-.6.3-1.2.6-1.7s.7-1 1.2-1.5c.5-.4 1-.8 1.6-1C4.2.5 4.8.3 5.5.2L7.6 0h119.7c.6 0 1.4 0 2.1.2.7.1 1.3.3 1.9.6s1.1.6 1.6 1.1c.5.4.9.9 1.2 1.5.3.5.5 1.1.6 1.7.1.7.2 1.3.2 2V33c0 .6-.1 1.3-.2 1.9s-.3 1.2-.6 1.7-.7 1-1.2 1.4-1 .8-1.6 1.1-1.2.5-1.9.6l-2.1.2H8.7z"/><g fill="#fff"><path stroke="#fff" stroke-miterlimit="10" stroke-width=".2" d="M47.4 10.1c0 .8-.2 1.5-.7 2-.6.6-1.3.9-2.2.9s-1.6-.3-2.2-.9-.9-1.3-.9-2.2.3-1.6.9-2.2 1.3-.9 2.2-.9c.4 0 .8.1 1.2.3s.7.4.9.7l-.5.5c-.4-.5-.9-.7-1.6-.7-.6 0-1.2.2-1.6.7-.5.4-.7 1-.7 1.7s.2 1.3.7 1.7 1 .7 1.6.7a2.19 2.19 0 0 0 1.7-.7c.3-.3.5-.7.5-1.2h-2.2v-.8h2.9v.4zM52 7.6h-2.7v1.9h2.5v.7h-2.5v1.9H52v.7h-3.5v-6H52v.8zm3.3 5.3h-.8V7.6h-1.7v-.7H57v.7h-1.7v5.3zm4.6 0v-6h.8v6h-.8zm4.2 0h-.8V7.6h-1.7v-.7h4.1v.7H64v5.3zm9.5-.8c-.6.6-1.3.9-2.2.9s-1.6-.3-2.2-.9-.9-1.3-.9-2.2.3-1.6.9-2.2 1.3-.9 2.2-.9 1.6.3 2.2.9.9 1.3.9 2.2-.3 1.6-.9 2.2zm-3.8-.5c.4.4 1 .7 1.6.7s1.2-.2 1.6-.7c.4-.4.7-1 .7-1.7s-.2-1.3-.7-1.7c-.4-.4-1-.7-1.6-.7s-1.2.2-1.6.7c-.4.4-.7 1-.7 1.7s.2 1.3.7 1.7zm5.8 1.3v-6h.9l2.9 4.7V6.9h.8v6h-.8L76.3 8v4.9h-.7z"/><path d="M68.1 21.6c-2.4 0-4.3 1.8-4.3 4.3 0 2.4 1.9 4.3 4.3 4.3s4.3-1.8 4.3-4.3-1.9-4.3-4.3-4.3zm0 6.9c-1.3 0-2.4-1.1-2.4-2.6s1.1-2.6 2.4-2.6 2.4 1 2.4 2.6c0 1.5-1.1 2.6-2.4 2.6zm-9.3-6.9c-2.4 0-4.3 1.8-4.3 4.3 0 2.4 1.9 4.3 4.3 4.3s4.3-1.8 4.3-4.3-1.9-4.3-4.3-4.3zm0 6.9c-1.3 0-2.4-1.1-2.4-2.6s1.1-2.6 2.4-2.6 2.4 1 2.4 2.6c0 1.5-1.1 2.6-2.4 2.6zm-11.1-5.6v1.8H52c-.1 1-.5 1.8-1 2.3-.6.6-1.6 1.3-3.3 1.3-2.7 0-4.7-2.1-4.7-4.8s2.1-4.8 4.7-4.8c1.4 0 2.5.6 3.3 1.3l1.3-1.3c-1.1-1-2.5-1.8-4.5-1.8-3.6 0-6.7 3-6.7 6.6s3.1 6.6 6.7 6.6c2 0 3.4-.6 4.6-1.9C53.6 27 54 25.3 54 24c0-.4 0-.8-.1-1.1h-6.2zm45.4 1.4c-.4-1-1.4-2.7-3.6-2.7s-4 1.7-4 4.3c0 2.4 1.8 4.3 4.2 4.3 1.9 0 3.1-1.2 3.5-1.9l-1.4-1c-.5.7-1.1 1.2-2.1 1.2s-1.6-.4-2.1-1.3l5.7-2.4-.2-.5zm-5.8 1.5c0-1.6 1.3-2.5 2.2-2.5.7 0 1.4.4 1.6.9l-3.8 1.6zm-4.7 4.1h1.9V17.4h-1.9v12.5zm-3-7.3c-.5-.5-1.3-1-2.3-1-2.1 0-4.1 1.9-4.1 4.3s1.9 4.2 4.1 4.2c1 0 1.8-.5 2.2-1h.1v.6c0 1.6-.9 2.5-2.3 2.5-1.1 0-1.9-.8-2.1-1.5l-1.6.7c.5 1.1 1.7 2.5 3.8 2.5 2.2 0 4-1.3 4-4.4v-7.6h-1.8v.7zm-2.2 5.9c-1.3 0-2.4-1.1-2.4-2.6s1.1-2.6 2.4-2.6 2.3 1.1 2.3 2.6-1 2.6-2.3 2.6zm24.4-11.1h-4.5v12.5h1.9v-4.7h2.6c2.1 0 4.1-1.5 4.1-3.9s-2-3.9-4.1-3.9zm.1 6h-2.7v-4.3h2.7a2.2 2.2 0 0 1 2.2 2.1c-.1 1-.9 2.2-2.2 2.2zm11.5-1.8c-1.4 0-2.8.6-3.3 1.9l1.7.7c.4-.7 1-.9 1.7-.9 1 0 1.9.6 2 1.6v.1c-.3-.2-1.1-.5-1.9-.5-1.8 0-3.6 1-3.6 2.8 0 1.7 1.5 2.8 3.1 2.8 1.3 0 1.9-.6 2.4-1.2h.1v1h1.8v-4.8c-.2-2.2-1.9-3.5-4-3.5zm-.2 6.9c-.6 0-1.5-.3-1.5-1.1 0-1 1.1-1.3 2-1.3.8 0 1.2.2 1.7.4-.2 1.1-1.2 2-2.2 2zm10.5-6.6-2.1 5.4h-.1l-2.2-5.4h-2l3.3 7.6-1.9 4.2h1.9l5.1-11.8h-2zm-16.8 8h1.9V17.4h-1.9v12.5z"/></g><linearGradient id="a" x1="21.8" x2="5.017" y1="8.597" y2="25.38" gradientUnits="userSpaceOnUse"><stop offset="0" stop-color="#00a0ff"/><stop offset=".007" stop-color="#00a1ff"/><stop offset=".26" stop-color="#00beff"/><stop offset=".512" stop-color="#00d2ff"/><stop offset=".76" stop-color="#00dfff"/><stop offset="1" stop-color="#00e3ff"/></linearGradient><path fill="url(#a)" d="M10.4 7.4c-.3.3-.4.8-.4 1.4v22.1c0 .6.2 1.1.5 1.4l.1.1L22.9 20v-.2L10.4 7.4z"/><linearGradient id="b" x1="33.834" x2="9.637" y1="19.889" y2="19.889" gradientUnits="userSpaceOnUse"><stop offset="0" stop-color="#ffe000"/><stop offset=".409" stop-color="#ffbd00"/><stop offset=".775" stop-color="orange"/><stop offset="1" stop-color="#ff9c00"/></linearGradient><path fill="url(#b)" d="M27 24.2 22.9 20v-.2l4.1-4.1.1.1 4.9 2.8c1.4.8 1.4 2.1 0 2.9l-5 2.7z"/><linearGradient id="c" x1="24.827" x2="2.069" y1="22.184" y2="44.942" gradientUnits="userSpaceOnUse"><stop offset="0" stop-color="#ff3a44"/><stop offset="1" stop-color="#c31162"/></linearGradient><path fill="url(#c)" d="m27.1 24.1-4.2-4.2-12.5 12.5c.5.5 1.2.5 2.1.1l14.6-8.4"/><linearGradient id="d" x1="7.297" x2="17.46" y1=".064" y2="10.226" gradientUnits="userSpaceOnUse"><stop offset="0" stop-color="#32a071"/><stop offset=".069" stop-color="#2da771"/><stop offset=".476" stop-color="#15cf74"/><stop offset=".801" stop-color="#06e775"/><stop offset="1" stop-color="#00f076"/></linearGradient><path fill="url(#d)" d="M27.1 15.7 12.5 7.4c-.9-.5-1.6-.4-2.1.1L22.9 20l4.2-4.3z"/><path d="m27 24-14.5 8.2c-.8.5-1.5.4-2 0l-.1.1.1.1c.5.4 1.2.5 2 0L27 24z" opacity=".2"/><path d="M10.4 32.2c-.3-.3-.5-.8-.5-1.4v.1c0 .6.2 1.1.5 1.4v-.1zm21.6-11L27 24l.1.1 4.9-2.8c.7-.4 1-.9 1-1.4 0 .5-.4.9-1 1.3z" opacity=".12"/><path fill="#fff" d="M12.5 7.5 32 18.6c.6.4 1 .8 1 1.3 0-.5-.3-1-1-1.4L12.5 7.4c-1.4-.8-2.5-.2-2.5 1.4V9c0-1.6 1.1-2.3 2.5-1.5z" opacity=".25"/></svg>